<?xml version="1.0" encoding="iso-8859-1"?>
<!-- Generator: Adobe Illustrator 19.0.0, SVG Export Plug-In . SVG Version: 6.00 Build 0)  -->
<svg version="1.1" id="Capa_1" xmlns="http://www.w3.org/2000/svg" xmlns:xlink="http://www.w3.org/1999/xlink" x="0px" y="0px"
	 viewBox="0 0 512 512" style="enable-background:new 0 0 512 512;" xml:space="preserve">
<path style="fill:#EFEFEF;" d="M227.421,0H48.141C21.694,0,0.253,21.441,0.253,47.89c0,24.306,0,391.598,0,416.221
	c0,26.449,21.441,47.89,47.89,47.89h179.28c26.449,0,47.89-21.441,47.89-47.89c0-21.573,0-383.339,0-416.221
	C275.311,21.441,253.87,0,227.421,0z"/>
<path style="fill:#DDDDDD;" d="M26.007,464.11c0-15.981,0-400.235,0-416.221C26.007,21.441,47.448,0,73.896,0H48.141
	C21.694,0,0.253,21.441,0.253,47.89c0,24.306,0,391.598,0,416.221c0,26.449,21.441,47.89,47.89,47.89h25.755
	C47.448,512,26.007,490.559,26.007,464.11z"/>
<path style="fill:#3997EE;" d="M248.526,463.859c0,11.794-9.562,21.356-21.356,21.356H47.364c-11.795,0-21.357-9.562-21.357-21.357
	V48.141c0-11.795,9.562-21.357,21.357-21.357H69.49c4.431,0,8.023,3.478,8.026,7.767v4.594c0,6.799,5.563,12.363,12.363,12.363
	h0.053h94.669h0.053c6.799,0,12.363-5.564,12.363-12.363v-4.594c0.003-4.29,3.595-7.767,8.026-7.767h22.127
	c11.794,0,21.356,9.562,21.356,21.356C248.526,71.084,248.526,440.832,248.526,463.859z"/>
<path style="fill:#1E88D8;" d="M53.822,463.859V48.141c0-10.61,7.745-19.388,17.884-21.049c-0.704-0.196-1.447-0.307-2.217-0.307
	H47.364c-11.795,0-21.357,9.562-21.357,21.357V463.86c0,11.795,9.562,21.357,21.357,21.357h27.815
	C63.383,485.214,53.822,475.653,53.822,463.859z"/>
<path style="fill:#48AEF9;" d="M138.296,444.523h-10.302c-4.267,0-7.726-3.459-7.726-7.726s3.46-7.726,7.726-7.726h10.302
	c4.267,0,7.726,3.459,7.726,7.726S142.564,444.523,138.296,444.523z"/>
<g>
	<path style="fill:#EFEFEF;" d="M129.026,380.652H67.215c-4.267,0-7.726-3.459-7.726-7.726c0-4.268,3.46-7.726,7.726-7.726h61.811
		c4.267,0,7.726,3.459,7.726,7.726C136.752,377.193,133.292,380.652,129.026,380.652z"/>
	<path style="fill:#EFEFEF;" d="M149.629,312.66H67.215c-4.267,0-7.726-3.459-7.726-7.726s3.46-7.726,7.726-7.726h82.415
		c4.267,0,7.726,3.459,7.726,7.726S153.896,312.66,149.629,312.66z"/>
	<path style="fill:#EFEFEF;" d="M129.026,346.655H67.215c-4.267,0-7.726-3.459-7.726-7.726s3.46-7.726,7.726-7.726h61.811
		c4.267,0,7.726,3.459,7.726,7.726C136.752,343.197,133.292,346.655,129.026,346.655z"/>
</g>
<path style="fill:#FC5B6F;" d="M187.505,134.354c-6.212-6.212-14.638-9.702-23.423-9.702l0,0h-59.325l0,0
	c-8.785,0-17.211,3.491-23.424,9.703l-26.958,26.958c-0.68,0.68-0.68,1.783,0,2.463l30.09,30.091c0.721,0.721,1.891,0.721,2.612,0
	l8.928-8.928c0.552-0.553,1.499-0.162,1.499,0.62v68.456c0,1.949,1.579,3.529,3.529,3.529h67.051c1.795,0,3.25-1.455,3.25-3.25
	v-67.808c0-1.124,1.359-1.686,2.154-0.892l7.612,7.613c1.086,1.086,2.847,1.086,3.933,0l28.601-28.602
	c1.138-1.138,1.138-2.983,0-4.122L187.505,134.354z"/>
<g>
	<path style="fill:#F74352;" d="M67.206,176.608l42.252-42.253c6.212-6.213,14.639-9.703,23.424-9.703h-28.125
		c-8.785,0-17.211,3.491-23.424,9.703l-26.958,26.958c-0.68,0.68-0.68,1.783,0,2.463L67.206,176.608z"/>
	<path style="fill:#F74352;" d="M134.684,149.238c13.579,0,24.586-11.007,24.586-24.586h-49.171
		C110.098,138.23,121.105,149.238,134.684,149.238z"/>
</g>
<path style="fill:#E8364C;" d="M131.456,124.652h-21.358c0,13.579,11.007,24.586,24.586,24.586c3.827,0,7.45-0.875,10.678-2.435
	C137.133,142.828,131.456,134.403,131.456,124.652z"/>
<rect x="97.504" y="195.217" style="fill:#F991A2;" width="73.83" height="15.453"/>
<path style="fill:#DDDDDD;" d="M344.319,460.504l-172.699-99.707c-5.007-2.89-6.722-9.293-3.831-14.299L319.513,83.702
	c2.89-5.007,9.293-6.722,14.299-3.831l172.699,99.707c5.007,2.89,6.722,9.293,3.831,14.299L358.618,456.673
	C355.727,461.68,349.326,463.395,344.319,460.504z"/>
<path style="fill:#CECCCA;" d="M369.512,423.46L191.104,320.456c-2.387-1.378-4.038-3.531-4.843-5.955l-18.473,31.996
	c-2.89,5.007-1.175,11.409,3.831,14.299l172.699,99.707c5.007,2.891,11.409,1.175,14.299-3.831l18.473-31.996
	C374.589,425.191,371.898,424.838,369.512,423.46z"/>
<rect x="278.916" y="85.859" transform="matrix(-0.866 -0.5 0.5 -0.866 437.1317 613.2328)" style="fill:#647892;" width="43.62" height="324.382"/>
<rect x="208.483" y="347.352" transform="matrix(0.5 -0.866 0.866 0.5 -204.293 384.4729)" style="fill:#4D6682;" width="44.677" height="43.62"/>
<path style="fill:#FAC149;" d="M439.107,183.397c-14.779-8.533-33.678-3.47-42.21,11.31c-3.172,5.495-4.462,11.559-4.075,17.447
	c8.875-4.232,19.614-4.17,28.773,1.118c9.285,5.361,14.732,14.812,15.386,24.764c5.447-2.596,10.193-6.807,13.438-12.428
	C458.949,210.828,453.886,191.929,439.107,183.397z"/>
<path style="fill:#FC5B6F;" d="M408.207,236.917c-9.285-5.361-14.731-14.812-15.386-24.764c-5.447,2.596-10.193,6.807-13.438,12.429
	c-8.533,14.779-3.47,33.678,11.31,42.21c14.779,8.533,33.678,3.47,42.21-11.311c3.172-5.495,4.462-11.558,4.075-17.447
	C428.104,242.267,417.366,242.205,408.207,236.917z"/>
<path style="fill:#F74352;" d="M399.451,254.087c-13.207-7.624-18.647-23.525-13.568-37.368c-2.521,2.189-4.737,4.81-6.501,7.863
	c-8.533,14.779-3.47,33.678,11.31,42.21c14.779,8.533,33.678,3.47,42.21-11.311c0.901-1.56,1.633-3.17,2.235-4.804
	C425.462,259.064,411.166,260.85,399.451,254.087z"/>
<path style="fill:#F38D1A;" d="M421.593,213.271c-9.159-5.288-19.897-5.35-28.773-1.118c0.653,9.951,6.101,19.403,15.386,24.764
	c9.159,5.288,19.897,5.35,28.773,1.118C436.326,228.084,430.878,218.632,421.593,213.271z"/>
<g>
	<path style="fill:#DDDDDD;" d="M163.021,33.481h-31.935c-4.267,0-7.726-3.459-7.726-7.726s3.46-7.726,7.726-7.726h31.935
		c4.267,0,7.726,3.459,7.726,7.726S167.288,33.481,163.021,33.481z"/>
	<path style="fill:#DDDDDD;" d="M104.97,33.119c-4.342,0-7.726-3.549-7.726-7.715c0-4.839,4.459-8.54,9.241-7.583
		c3.735,0.775,6.212,3.986,6.212,7.583C112.697,29.663,109.236,33.119,104.97,33.119z"/>
</g>
<g>
	<path style="fill:#EFEFEF;" d="M319.18,398.976c-1.311,0-2.639-0.334-3.856-1.036c-3.695-2.134-4.962-6.859-2.828-10.555
		l5.664-9.809c2.133-3.697,6.858-4.962,10.555-2.828c3.695,2.134,4.962,6.859,2.828,10.555l-5.664,9.809
		C324.446,397.59,321.849,398.976,319.18,398.976z"/>
	<path style="fill:#EFEFEF;" d="M340.623,361.834c-1.311,0-2.639-0.334-3.856-1.036c-3.695-2.134-4.962-6.859-2.828-10.555
		l5.664-9.81c2.132-3.696,6.859-4.962,10.555-2.828c3.695,2.134,4.962,6.859,2.828,10.555l-5.664,9.811
		C345.89,360.45,343.293,361.834,340.623,361.834z"/>
	<path style="fill:#EFEFEF;" d="M362.066,324.693c-1.311,0-2.639-0.334-3.856-1.036c-3.695-2.134-4.962-6.859-2.828-10.555
		l5.664-9.81c2.133-3.696,6.858-4.962,10.555-2.828c3.695,2.134,4.962,6.859,2.828,10.555l-5.664,9.81
		C367.334,323.307,364.737,324.693,362.066,324.693z"/>
</g>
<g>
</g>
<g>
</g>
<g>
</g>
<g>
</g>
<g>
</g>
<g>
</g>
<g>
</g>
<g>
</g>
<g>
</g>
<g>
</g>
<g>
</g>
<g>
</g>
<g>
</g>
<g>
</g>
<g>
</g>
</svg>
